<svg width="70" height="69" viewBox="0 0 70 69" fill="none" xmlns="http://www.w3.org/2000/svg">
<g clip-path="url(#clip0_2008_107)">
<mask id="mask0_2008_107" style="mask-type:luminance" maskUnits="userSpaceOnUse" x="0" y="0" width="70" height="69">
<path fill-rule="evenodd" clip-rule="evenodd" d="M69.1196 21.3393C69.1196 20.5259 69.12 19.7124 69.115 18.8989C69.1109 18.2137 69.103 17.5286 69.0844 16.8437C69.0441 15.3508 68.9561 13.8452 68.6906 12.369C68.4213 10.8715 67.9816 9.47774 67.2887 8.11711C66.6075 6.77977 65.7177 5.55601 64.656 4.49507C63.5946 3.43412 62.3705 2.54489 61.0327 1.86412C59.6706 1.17104 58.2754 0.731494 56.7763 0.462329C55.2999 0.197238 53.7938 0.109346 52.301 0.0690167C51.6156 0.0504737 50.9301 0.0426573 50.2446 0.0384165C49.4307 0.0334274 48.6168 0.0338431 47.8029 0.0338431L38.3528 0H31.2848L22.0019 0.0338431C21.1865 0.0338431 20.371 0.0334274 19.5555 0.0384165C18.8685 0.0426573 18.1818 0.0504737 17.4951 0.0690167C15.9988 0.109346 14.4893 0.197321 13.0094 0.462745C11.5083 0.731827 10.111 1.17121 8.74713 1.86378C7.40646 2.54464 6.17972 3.43396 5.11603 4.49507C4.05251 5.55593 3.16104 6.77944 2.47861 8.11653C1.78379 9.47782 1.34324 10.8724 1.07333 12.3707C0.807577 13.8463 0.719518 15.3515 0.679023 16.8437C0.660563 17.5287 0.652581 18.2138 0.648423 18.8989C0.643434 19.7125 0.601608 20.7231 0.601608 21.5365L0.601858 30.6908L0.601608 37.8345L0.64385 47.1832C0.64385 47.9978 0.643517 48.8124 0.648423 49.6269C0.652581 50.3131 0.660563 50.9991 0.679106 51.685C0.719518 53.1798 0.807743 54.6876 1.07375 56.1658C1.34358 57.6653 1.78403 59.061 2.47827 60.4234C3.16079 61.7626 4.05243 62.988 5.11603 64.0504C6.17963 65.1129 7.40605 66.0033 8.74646 66.685C10.1112 67.379 11.5091 67.8191 13.0112 68.0886C14.4904 68.3541 15.9993 68.4422 17.4951 68.4825C18.1818 68.5011 18.8686 68.509 19.5556 68.5131C20.3711 68.5181 21.1865 68.5178 22.0019 68.5178L31.3687 68.518H38.4542L47.8029 68.5177C48.6168 68.5177 49.4307 68.5181 50.2446 68.5131C50.9301 68.509 51.6156 68.5011 52.301 68.4825C53.7944 68.4421 55.301 68.354 56.778 68.0883C58.2762 67.8188 59.6708 67.3789 61.0321 66.6853C62.3702 66.0036 63.5945 65.113 64.656 64.0504C65.7175 62.9881 66.6073 61.763 67.2885 60.424C67.9818 59.0609 68.4215 57.6645 68.6909 56.1641C68.9562 54.6864 69.0441 53.1792 69.0845 51.685C69.103 50.999 69.1109 50.313 69.115 49.6269C69.1201 48.8124 69.1196 47.9978 69.1196 47.1832C69.1196 47.1832 69.1191 37.9995 69.1191 37.8345V30.6833C69.1191 30.5614 69.1196 21.3393 69.1196 21.3393" fill="white"/>
</mask>
<g mask="url(#mask0_2008_107)">
<rect x="-4.22125" y="-5.15546" width="76.0018" height="76.0018" fill="#101010"/>
<path fill-rule="evenodd" clip-rule="evenodd" d="M35.8679 13.4415C24.1515 13.4415 14.6799 22.9829 14.6799 34.7869C14.6799 44.2225 20.7487 52.2095 29.1677 55.0364C30.2203 55.2489 30.6058 54.5771 30.6058 54.012C30.6058 53.5171 30.5711 51.8209 30.5711 50.0536C24.6772 51.3261 23.4498 47.5091 23.4498 47.5091C22.5026 45.0353 21.0991 44.3995 21.0991 44.3995C19.17 43.0919 21.2396 43.0919 21.2396 43.0919C23.3795 43.2332 24.5024 45.2829 24.5024 45.2829C26.3963 48.5339 29.4483 47.6154 30.6761 47.0498C30.8513 45.6715 31.4129 44.7174 32.0093 44.1874C27.3084 43.6925 22.3625 41.855 22.3625 33.6559C22.3625 31.3234 23.2039 29.4151 24.5371 27.931C24.3267 27.401 23.5899 25.2095 24.7478 22.2764C24.7478 22.2764 26.5369 21.7109 30.5707 24.4675C32.2977 24.0002 34.0788 23.7626 35.8679 23.7606C37.6569 23.7606 39.4806 24.0082 41.1647 24.4675C45.199 21.7109 46.988 22.2764 46.988 22.2764C48.146 25.2095 47.4087 27.401 47.1983 27.931C48.5666 29.4151 49.3733 31.3234 49.3733 33.6559C49.3733 41.855 44.4274 43.657 39.6914 44.1874C40.4634 44.8588 41.1296 46.1308 41.1296 48.1453C41.1296 51.0078 41.0949 53.3051 41.0949 54.0116C41.0949 54.5771 41.4809 55.2489 42.533 55.0368C50.952 52.2091 57.0208 44.2225 57.0208 34.7869C57.0555 22.9829 47.5492 13.4415 35.8679 13.4415Z" fill="url(#paint0_linear_2008_107)"/>
</g>
</g>
<defs>
<linearGradient id="paint0_linear_2008_107" x1="35.8504" y1="13.4415" x2="35.8504" y2="55.0769" gradientUnits="userSpaceOnUse">
<stop stop-color="#F1F1F1"/>
<stop offset="1" stop-color="white" stop-opacity="0.42"/>
</linearGradient>
<clipPath id="clip0_2008_107">
<rect width="68.518" height="68.518" fill="white" transform="translate(0.601608)"/>
</clipPath>
</defs>
</svg>
