<svg width="69" height="69" viewBox="0 0 69 69" fill="none" xmlns="http://www.w3.org/2000/svg">
<g clip-path="url(#clip0_2008_122)">
<mask id="mask0_2008_122" style="mask-type:luminance" maskUnits="userSpaceOnUse" x="0" y="0" width="69" height="69">
<path fill-rule="evenodd" clip-rule="evenodd" d="M68.518 21.8212C68.518 21.0078 68.5184 20.1944 68.5134 19.3809C68.5093 18.6956 68.5014 18.0105 68.4828 17.3256C68.4425 15.8327 68.3545 14.3271 68.089 12.8509C67.8197 11.3534 67.38 9.95967 66.6871 8.59905C66.0059 7.2617 65.1161 6.03795 64.0544 4.977C62.993 3.91606 61.7689 3.02682 60.4311 2.34605C59.069 1.65297 57.6738 1.21343 56.1746 0.944262C54.6983 0.679172 53.1922 0.591279 51.6994 0.55095C51.014 0.532407 50.3285 0.524591 49.6429 0.52035C48.8291 0.515361 48.0152 0.515777 47.2013 0.515777L37.7512 0.481934H30.6832L21.4003 0.515777C20.5849 0.515777 19.7694 0.515361 18.9539 0.52035C18.2669 0.524591 17.5802 0.532407 16.8935 0.55095C15.3972 0.591279 13.8877 0.679255 12.4078 0.944678C10.9067 1.21376 9.50939 1.65314 8.14552 2.34572C6.80486 3.02657 5.57811 3.91589 4.51442 4.977C3.45091 6.03786 2.55943 7.26137 1.877 8.59846C1.18218 9.95976 0.741636 11.3543 0.471723 12.8526C0.205968 14.3283 0.11791 15.8334 0.0774148 17.3256C0.058955 18.0106 0.0509724 18.6957 0.0468148 19.3809C0.0418256 20.1944 0 21.205 0 22.0185L0.000249457 31.1727L0 38.3164L0.0422414 47.6652C0.0422414 48.4797 0.0419088 49.2943 0.0468148 50.1089C0.0509724 50.795 0.058955 51.481 0.077498 52.167C0.11791 53.6617 0.206135 55.1695 0.472139 56.6477C0.741968 58.1472 1.18243 59.5429 1.87667 60.9053C2.55918 62.2446 3.45082 63.4699 4.51442 64.5324C5.57803 65.5948 6.80444 66.4852 8.14486 67.167C9.50955 67.8609 10.9075 68.3011 12.4096 68.5706C13.8888 68.8361 15.3977 68.9241 16.8935 68.9645C17.5802 68.983 18.267 68.9909 18.954 68.9951C19.7695 69.0001 20.5849 68.9997 21.4003 68.9997L30.7671 69H37.8526L47.2013 68.9996C48.0152 68.9996 48.8291 69.0001 49.6429 68.9951C50.3285 68.9909 51.014 68.983 51.6994 68.9645C53.1928 68.9241 54.6994 68.8359 56.1764 68.5702C57.6746 68.3007 59.0692 67.8608 60.4305 67.1672C61.7686 66.4855 62.9929 65.595 64.0544 64.5324C65.1159 63.4701 66.0057 62.2449 66.6869 60.9059C67.3802 59.5429 67.8199 58.1465 68.0893 56.646C68.3546 55.1684 68.4425 53.6611 68.4829 52.167C68.5014 51.481 68.5093 50.7949 68.5134 50.1089C68.5185 49.2943 68.518 48.4797 68.518 47.6652C68.518 47.6652 68.5175 38.4815 68.5175 38.3164V31.1653C68.5175 31.0434 68.518 21.8212 68.518 21.8212" fill="white"/>
</mask>
<g mask="url(#mask0_2008_122)">
<rect x="-4.82288" y="-4.67352" width="76.0018" height="76.0018" fill="#0E68C2"/>
<g filter="url(#filter0_ddd_2008_122)">
<path d="M13.5465 26.7135C13.5465 26.0246 14.1049 25.4662 14.7938 25.4662H21.0412C21.73 25.4662 22.2885 26.0246 22.2885 26.7135V52.5429C22.2885 53.2317 21.73 53.7902 21.0412 53.7902H14.7938C14.1049 53.7902 13.5465 53.2317 13.5465 52.5429V26.7135ZM12.8471 16.5493C12.8471 15.1506 13.3328 13.9656 14.3041 12.9943C15.3143 11.9841 16.5188 11.479 17.9175 11.479C19.3162 11.479 20.5012 11.9841 21.4726 12.9943C22.4827 13.9656 22.9878 15.1506 22.9878 16.5493C22.9878 17.9481 22.4827 19.1525 21.4726 20.1627C20.5012 21.134 19.3162 21.6197 17.9175 21.6197C16.5188 21.6197 15.3143 21.134 14.3041 20.1627C13.3328 19.1525 12.8471 17.9481 12.8471 16.5493Z" fill="#F8F5F5"/>
<path d="M28.569 26.7135C28.569 26.0246 29.1275 25.4662 29.8163 25.4662H35.714C36.4029 25.4662 36.9613 26.0246 36.9613 26.7135V29.2406C36.9613 29.2804 36.9936 29.3126 37.0334 29.3126V29.3126C37.0607 29.3126 37.0855 29.2972 37.098 29.2729C37.3688 28.7422 37.7507 28.2115 38.2435 27.6808C38.7486 27.1369 39.3508 26.6512 40.0502 26.2238C40.7495 25.7964 41.546 25.4467 42.4396 25.1748C43.3333 24.9028 44.3046 24.7668 45.3536 24.7668C47.5683 24.7668 49.3555 25.1165 50.7154 25.8158C52.0752 26.4763 53.1243 27.4088 53.8625 28.6133C54.6395 29.8177 55.1641 31.2359 55.436 32.8677C55.708 34.4995 55.844 36.2674 55.844 38.1712V52.5429C55.844 53.2317 55.2856 53.7902 54.5967 53.7902H48.3493C47.6605 53.7902 47.102 53.2317 47.102 52.5429V39.9196C47.102 39.1036 47.0632 38.2683 46.9855 37.4135C46.9466 36.5199 46.7718 35.704 46.4609 34.9658C46.189 34.2276 45.7422 33.6253 45.1205 33.1591C44.5377 32.6929 43.6829 32.4597 42.5562 32.4597C41.4294 32.4597 40.5164 32.6734 39.817 33.1008C39.1177 33.4894 38.5737 34.0333 38.1852 34.7327C37.8355 35.3932 37.6024 36.1508 37.4858 37.0056C37.3693 37.8603 37.311 38.754 37.311 39.6864V52.5429C37.311 53.2317 36.7526 53.7902 36.0637 53.7902H29.8163C29.1275 53.7902 28.569 53.2317 28.569 52.5429V26.7135Z" fill="#F8F5F5"/>
</g>
</g>
</g>
<defs>
<filter id="filter0_ddd_2008_122" x="4.36553" y="3.49632" width="60.9579" height="60.2722" filterUnits="userSpaceOnUse" color-interpolation-filters="sRGB">
<feFlood flood-opacity="0" result="BackgroundImageFix"/>
<feColorMatrix in="SourceAlpha" type="matrix" values="0 0 0 0 0 0 0 0 0 0 0 0 0 0 0 0 0 0 127 0" result="hardAlpha"/>
<feOffset dx="0.498918" dy="2.66089"/>
<feGaussianBlur stdDeviation="2.07882"/>
<feColorMatrix type="matrix" values="0 0 0 0 0 0 0 0 0 0.0833333 0 0 0 0 0.166667 0 0 0 0.2 0"/>
<feBlend mode="normal" in2="BackgroundImageFix" result="effect1_dropShadow_2008_122"/>
<feColorMatrix in="SourceAlpha" type="matrix" values="0 0 0 0 0 0 0 0 0 0 0 0 0 0 0 0 0 0 127 0" result="hardAlpha"/>
<feOffset dx="0.498918" dy="0.997836"/>
<feGaussianBlur stdDeviation="4.49026"/>
<feColorMatrix type="matrix" values="0 0 0 0 0.14875 0 0 0 0 0.424375 0 0 0 0 0.7 0 0 0 0.3 0"/>
<feBlend mode="normal" in2="effect1_dropShadow_2008_122" result="effect2_dropShadow_2008_122"/>
<feColorMatrix in="SourceAlpha" type="matrix" values="0 0 0 0 0 0 0 0 0 0 0 0 0 0 0 0 0 0 127 0" result="hardAlpha"/>
<feOffset dy="0.498918"/>
<feGaussianBlur stdDeviation="1.66306"/>
<feColorMatrix type="matrix" values="0 0 0 0 0 0 0 0 0 0.157362 0 0 0 0 0.316667 0 0 0 0.2 0"/>
<feBlend mode="normal" in2="effect2_dropShadow_2008_122" result="effect3_dropShadow_2008_122"/>
<feBlend mode="normal" in="SourceGraphic" in2="effect3_dropShadow_2008_122" result="shape"/>
</filter>
<clipPath id="clip0_2008_122">
<rect width="68.518" height="68.518" fill="white" transform="translate(0 0.481934)"/>
</clipPath>
</defs>
</svg>
