<svg width="70" height="69" viewBox="0 0 70 69" fill="none" xmlns="http://www.w3.org/2000/svg">
<g clip-path="url(#clip0_2008_112)">
<mask id="mask0_2008_112" style="mask-type:luminance" maskUnits="userSpaceOnUse" x="0" y="0" width="70" height="69">
<path fill-rule="evenodd" clip-rule="evenodd" d="M69.1381 21.8212C69.1381 21.0078 69.1385 20.1944 69.1335 19.3809C69.1294 18.6956 69.1215 18.0105 69.1029 17.3256C69.0626 15.8327 68.9746 14.3271 68.7091 12.8509C68.4398 11.3534 68.0001 9.95967 67.3072 8.59905C66.626 7.2617 65.7362 6.03795 64.6745 4.977C63.6131 3.91606 62.389 3.02682 61.0512 2.34605C59.6891 1.65297 58.2939 1.21343 56.7948 0.944262C55.3184 0.679172 53.8123 0.591279 52.3195 0.55095C51.6341 0.532407 50.9486 0.524591 50.2631 0.52035C49.4492 0.515361 48.6353 0.515777 47.8214 0.515777L38.3713 0.481934H31.3033L22.0204 0.515777C21.205 0.515777 20.3895 0.515361 19.574 0.52035C18.887 0.524591 18.2003 0.532407 17.5136 0.55095C16.0173 0.591279 14.5078 0.679255 13.0279 0.944678C11.5268 1.21376 10.1295 1.65314 8.76563 2.34572C7.42497 3.02657 6.19822 3.91589 5.13453 4.977C4.07102 6.03786 3.17954 7.26137 2.49711 8.59846C1.80229 9.95976 1.36175 11.3543 1.09183 12.8526C0.826078 14.3283 0.73802 15.8334 0.697524 17.3256C0.679065 18.0106 0.671082 18.6957 0.666924 19.3809C0.661935 20.1944 0.62011 21.205 0.62011 22.0185L0.620359 31.1727L0.62011 38.3164L0.662351 47.6652C0.662351 48.4797 0.662018 49.2943 0.666924 50.1089C0.671082 50.795 0.679065 51.481 0.697608 52.167C0.73802 53.6617 0.826244 55.1695 1.09225 56.6477C1.36208 58.1472 1.80254 59.5429 2.49677 60.9053C3.17929 62.2446 4.07093 63.4699 5.13453 64.5324C6.19814 65.5948 7.42455 66.4852 8.76497 67.167C10.1297 67.8609 11.5276 68.3011 13.0297 68.5706C14.5089 68.8361 16.0178 68.9241 17.5136 68.9645C18.2003 68.983 18.8871 68.9909 19.5741 68.9951C20.3896 69.0001 21.205 68.9997 22.0204 68.9997L31.3872 69H38.4727L47.8214 68.9996C48.6353 68.9996 49.4492 69.0001 50.2631 68.9951C50.9486 68.9909 51.6341 68.983 52.3195 68.9645C53.8129 68.9241 55.3195 68.8359 56.7965 68.5702C58.2947 68.3007 59.6893 67.8608 61.0506 67.1672C62.3887 66.4855 63.613 65.595 64.6745 64.5324C65.7361 63.4701 66.6258 62.2449 67.307 60.9059C68.0003 59.5429 68.44 58.1465 68.7094 56.646C68.9747 55.1684 69.0626 53.6611 69.103 52.167C69.1215 51.481 69.1294 50.7949 69.1335 50.1089C69.1386 49.2943 69.1381 48.4797 69.1381 47.6652C69.1381 47.6652 69.1376 38.4815 69.1376 38.3164V31.1653C69.1376 31.0434 69.1381 21.8212 69.1381 21.8212" fill="white"/>
</mask>
<g mask="url(#mask0_2008_112)">
<rect x="-4.20277" y="-4.67352" width="76.0018" height="76.0018" fill="#E6E6E6"/>
</g>
<path d="M54.0489 27.2152L49.614 29.6544L45.1792 33.8674V48.325H51.388C52.8577 48.325 54.0489 47.1338 54.0489 45.6641V27.2152Z" fill="url(#paint0_linear_2008_112)"/>
<path d="M16.7963 27.2152L20.0018 28.7319L25.666 33.8674V48.325H19.4572C17.9875 48.325 16.7963 47.1338 16.7963 45.6641V27.2152Z" fill="url(#paint1_linear_2008_112)"/>
<path d="M45.1792 22.7803L35.4226 30.0977L25.666 22.7803L24.779 27.9247L25.666 33.8673L35.4226 41.1848L45.1792 33.8673L46.0662 27.9247L45.1792 22.7803Z" fill="url(#paint2_linear_2008_112)"/>
<path d="M16.7963 23.7541V27.2151L25.666 33.8673V22.7802L22.8951 20.7039C22.2352 20.2089 21.4334 19.942 20.6085 19.942C18.5029 19.942 16.7963 21.6485 16.7963 23.7541Z" fill="#C62828"/>
<path d="M54.0489 23.7541V27.2151L45.1792 33.8673V22.7802L47.9501 20.7039C48.61 20.2089 49.4118 19.942 50.2367 19.942C52.3423 19.942 54.0489 21.6485 54.0489 23.7541Z" fill="url(#paint3_linear_2008_112)"/>
</g>
<defs>
<linearGradient id="paint0_linear_2008_112" x1="49.614" y1="27.2152" x2="49.614" y2="48.325" gradientUnits="userSpaceOnUse">
<stop stop-color="#34A853"/>
<stop offset="1" stop-color="#0E6E27"/>
</linearGradient>
<linearGradient id="paint1_linear_2008_112" x1="21.2312" y1="27.2152" x2="21.2312" y2="48.325" gradientUnits="userSpaceOnUse">
<stop stop-color="#4285F4"/>
<stop offset="1" stop-color="#134598"/>
</linearGradient>
<linearGradient id="paint2_linear_2008_112" x1="35.4226" y1="22.7803" x2="35.4226" y2="41.1848" gradientUnits="userSpaceOnUse">
<stop stop-color="#EB4335"/>
<stop offset="1" stop-color="#A6251A"/>
</linearGradient>
<linearGradient id="paint3_linear_2008_112" x1="49.614" y1="19.942" x2="49.614" y2="33.8673" gradientUnits="userSpaceOnUse">
<stop stop-color="#FBBC05"/>
<stop offset="1" stop-color="#C98115"/>
</linearGradient>
<clipPath id="clip0_2008_112">
<rect width="68.518" height="68.518" fill="white" transform="translate(0.62011 0.481934)"/>
</clipPath>
</defs>
</svg>
